<svg id="hero__logo__svg" viewBox="0 0 1424 284" fill="none" xmlns="http://www.w3.org/2000/svg">
    <mask id="path-1-outside-1" maskUnits="userSpaceOnUse" x="0.0193481" y="0.320007" width="1424" height="283"
        fill="black">
        <rect fill="white" x="0.0193481" y="0.320007" width="1424" height="283" />
        <path
            d="M255.117 40.24H241.317V97H230.397V40.24H221.877V31.24H230.397V26.56C230.397 19.2 232.277 13.84 236.037 10.48C239.877 7.03998 245.997 5.32001 254.397 5.32001V14.44C249.597 14.44 246.197 15.4 244.197 17.32C242.277 19.16 241.317 22.24 241.317 26.56V31.24H255.117V40.24Z" />
        <path
            d="M327.849 61.6C327.849 63.68 327.729 65.88 327.489 68.2H274.929C275.329 74.68 277.529 79.76 281.529 83.44C285.609 87.04 290.529 88.84 296.289 88.84C301.009 88.84 304.929 87.76 308.049 85.6C311.249 83.36 313.489 80.4 314.769 76.72H326.529C324.769 83.04 321.249 88.2 315.969 92.2C310.689 96.12 304.129 98.08 296.289 98.08C290.049 98.08 284.449 96.68 279.489 93.88C274.609 91.08 270.769 87.12 267.969 82C265.169 76.8 263.769 70.8 263.769 64C263.769 57.2 265.129 51.24 267.849 46.12C270.569 41 274.369 37.08 279.249 34.36C284.209 31.56 289.889 30.16 296.289 30.16C302.529 30.16 308.049 31.52 312.849 34.24C317.649 36.96 321.329 40.72 323.889 45.52C326.529 50.24 327.849 55.6 327.849 61.6ZM316.569 59.32C316.569 55.16 315.649 51.6 313.809 48.64C311.969 45.6 309.449 43.32 306.249 41.8C303.129 40.2 299.649 39.4 295.809 39.4C290.289 39.4 285.569 41.16 281.649 44.68C277.809 48.2 275.609 53.08 275.049 59.32H316.569Z" />
        <path
            d="M338.183 63.88C338.183 57.16 339.543 51.28 342.263 46.24C344.983 41.12 348.703 37.16 353.423 34.36C358.223 31.56 363.583 30.16 369.503 30.16C374.623 30.16 379.383 31.36 383.783 33.76C388.183 36.08 391.543 39.16 393.863 43V8.20001H404.903V97H393.863V84.64C391.703 88.56 388.503 91.8 384.263 94.36C380.023 96.84 375.063 98.08 369.383 98.08C363.543 98.08 358.223 96.64 353.423 93.76C348.703 90.88 344.983 86.84 342.263 81.64C339.543 76.44 338.183 70.52 338.183 63.88ZM393.863 64C393.863 59.04 392.863 54.72 390.863 51.04C388.863 47.36 386.143 44.56 382.703 42.64C379.343 40.64 375.623 39.64 371.543 39.64C367.463 39.64 363.743 40.6 360.383 42.52C357.023 44.44 354.343 47.24 352.343 50.92C350.343 54.6 349.343 58.92 349.343 63.88C349.343 68.92 350.343 73.32 352.343 77.08C354.343 80.76 357.023 83.6 360.383 85.6C363.743 87.52 367.463 88.48 371.543 88.48C375.623 88.48 379.343 87.52 382.703 85.6C386.143 83.6 388.863 80.76 390.863 77.08C392.863 73.32 393.863 68.96 393.863 64Z" />
        <path
            d="M483.357 61.6C483.357 63.68 483.237 65.88 482.997 68.2H430.437C430.837 74.68 433.037 79.76 437.037 83.44C441.117 87.04 446.037 88.84 451.797 88.84C456.517 88.84 460.437 87.76 463.557 85.6C466.757 83.36 468.997 80.4 470.277 76.72H482.037C480.277 83.04 476.757 88.2 471.477 92.2C466.197 96.12 459.637 98.08 451.797 98.08C445.557 98.08 439.957 96.68 434.997 93.88C430.117 91.08 426.277 87.12 423.477 82C420.677 76.8 419.277 70.8 419.277 64C419.277 57.2 420.637 51.24 423.357 46.12C426.077 41 429.877 37.08 434.757 34.36C439.717 31.56 445.397 30.16 451.797 30.16C458.037 30.16 463.557 31.52 468.357 34.24C473.157 36.96 476.837 40.72 479.397 45.52C482.037 50.24 483.357 55.6 483.357 61.6ZM472.077 59.32C472.077 55.16 471.157 51.6 469.317 48.64C467.477 45.6 464.957 43.32 461.757 41.8C458.637 40.2 455.157 39.4 451.317 39.4C445.797 39.4 441.077 41.16 437.157 44.68C433.317 48.2 431.117 53.08 430.557 59.32H472.077Z" />
        <path
            d="M508.691 41.92C510.611 38.16 513.331 35.24 516.851 33.16C520.451 31.08 524.811 30.04 529.931 30.04V41.32H527.051C514.811 41.32 508.691 47.96 508.691 61.24V97H497.771V31.24H508.691V41.92Z" />
        <path
            d="M548.177 20.56C546.097 20.56 544.337 19.84 542.897 18.4C541.457 16.96 540.737 15.2 540.737 13.12C540.737 11.04 541.457 9.27997 542.897 7.83997C544.337 6.39997 546.097 5.67999 548.177 5.67999C550.177 5.67999 551.857 6.39997 553.217 7.83997C554.657 9.27997 555.377 11.04 555.377 13.12C555.377 15.2 554.657 16.96 553.217 18.4C551.857 19.84 550.177 20.56 548.177 20.56ZM553.457 31.24V97H542.537V31.24H553.457Z" />
        <path
            d="M567.988 64C567.988 57.2 569.348 51.28 572.068 46.24C574.788 41.12 578.548 37.16 583.348 34.36C588.228 31.56 593.788 30.16 600.028 30.16C608.108 30.16 614.748 32.12 619.948 36.04C625.228 39.96 628.708 45.4 630.388 52.36H618.628C617.508 48.36 615.308 45.2 612.028 42.88C608.828 40.56 604.828 39.4 600.028 39.4C593.788 39.4 588.748 41.56 584.908 45.88C581.068 50.12 579.148 56.16 579.148 64C579.148 71.92 581.068 78.04 584.908 82.36C588.748 86.68 593.788 88.84 600.028 88.84C604.828 88.84 608.828 87.72 612.028 85.48C615.228 83.24 617.428 80.04 618.628 75.88H630.388C628.628 82.6 625.108 88 619.828 92.08C614.548 96.08 607.948 98.08 600.028 98.08C593.788 98.08 588.228 96.68 583.348 93.88C578.548 91.08 574.788 87.12 572.068 82C569.348 76.88 567.988 70.88 567.988 64Z" />
        <path
            d="M673.639 98.08C667.479 98.08 661.879 96.68 656.839 93.88C651.879 91.08 647.959 87.12 645.079 82C642.279 76.8 640.879 70.8 640.879 64C640.879 57.28 642.319 51.36 645.199 46.24C648.159 41.04 652.159 37.08 657.199 34.36C662.239 31.56 667.879 30.16 674.119 30.16C680.359 30.16 685.999 31.56 691.039 34.36C696.079 37.08 700.039 41 702.919 46.12C705.879 51.24 707.359 57.2 707.359 64C707.359 70.8 705.839 76.8 702.799 82C699.839 87.12 695.799 91.08 690.679 93.88C685.559 96.68 679.879 98.08 673.639 98.08ZM673.639 88.48C677.559 88.48 681.239 87.56 684.679 85.72C688.119 83.88 690.879 81.12 692.959 77.44C695.119 73.76 696.199 69.28 696.199 64C696.199 58.72 695.159 54.24 693.079 50.56C690.999 46.88 688.279 44.16 684.919 42.4C681.559 40.56 677.919 39.64 673.999 39.64C669.999 39.64 666.319 40.56 662.959 42.4C659.679 44.16 657.039 46.88 655.039 50.56C653.039 54.24 652.039 58.72 652.039 64C652.039 69.36 652.999 73.88 654.919 77.56C656.919 81.24 659.559 84 662.839 85.84C666.119 87.6 669.719 88.48 673.639 88.48Z" />
        <path
            d="M749.629 63.88C749.629 57.16 750.989 51.28 753.709 46.24C756.429 41.12 760.149 37.16 764.869 34.36C769.669 31.56 774.989 30.16 780.829 30.16C786.589 30.16 791.589 31.4 795.829 33.88C800.069 36.36 803.229 39.48 805.309 43.24V31.24H816.349V97H805.309V84.76C803.149 88.6 799.909 91.8 795.589 94.36C791.349 96.84 786.389 98.08 780.709 98.08C774.869 98.08 769.589 96.64 764.869 93.76C760.149 90.88 756.429 86.84 753.709 81.64C750.989 76.44 749.629 70.52 749.629 63.88ZM805.309 64C805.309 59.04 804.309 54.72 802.309 51.04C800.309 47.36 797.589 44.56 794.149 42.64C790.789 40.64 787.069 39.64 782.989 39.64C778.909 39.64 775.189 40.6 771.829 42.52C768.469 44.44 765.789 47.24 763.789 50.92C761.789 54.6 760.789 58.92 760.789 63.88C760.789 68.92 761.789 73.32 763.789 77.08C765.789 80.76 768.469 83.6 771.829 85.6C775.189 87.52 778.909 88.48 782.989 88.48C787.069 88.48 790.789 87.52 794.149 85.6C797.589 83.6 800.309 80.76 802.309 77.08C804.309 73.32 805.309 68.96 805.309 64Z" />
        <path
            d="M861.922 30.16C867.602 30.16 872.562 31.4 876.802 33.88C881.122 36.36 884.323 39.48 886.403 43.24V31.24H897.443V98.44C897.443 104.44 896.162 109.76 893.602 114.4C891.042 119.12 887.363 122.8 882.562 125.44C877.842 128.08 872.323 129.4 866.003 129.4C857.363 129.4 850.163 127.36 844.403 123.28C838.643 119.2 835.243 113.64 834.203 106.6H845.003C846.203 110.6 848.683 113.8 852.443 116.2C856.203 118.68 860.723 119.92 866.003 119.92C872.003 119.92 876.883 118.04 880.643 114.28C884.483 110.52 886.403 105.24 886.403 98.44V84.64C884.243 88.48 881.042 91.68 876.802 94.24C872.562 96.8 867.602 98.08 861.922 98.08C856.082 98.08 850.763 96.64 845.963 93.76C841.243 90.88 837.522 86.84 834.802 81.64C832.082 76.44 830.722 70.52 830.722 63.88C830.722 57.16 832.082 51.28 834.802 46.24C837.522 41.12 841.243 37.16 845.963 34.36C850.763 31.56 856.082 30.16 861.922 30.16ZM886.403 64C886.403 59.04 885.403 54.72 883.403 51.04C881.403 47.36 878.682 44.56 875.242 42.64C871.882 40.64 868.163 39.64 864.083 39.64C860.003 39.64 856.282 40.6 852.922 42.52C849.562 44.44 846.883 47.24 844.883 50.92C842.883 54.6 841.883 58.92 841.883 63.88C841.883 68.92 842.883 73.32 844.883 77.08C846.883 80.76 849.562 83.6 852.922 85.6C856.282 87.52 860.003 88.48 864.083 88.48C868.163 88.48 871.882 87.52 875.242 85.6C878.682 83.6 881.403 80.76 883.403 77.08C885.403 73.32 886.403 68.96 886.403 64Z" />
        <path
            d="M974.216 31.24V97H963.296V87.28C961.216 90.64 958.296 93.28 954.536 95.2C950.856 97.04 946.776 97.96 942.296 97.96C937.176 97.96 932.576 96.92 928.496 94.84C924.416 92.68 921.176 89.48 918.776 85.24C916.456 81 915.296 75.84 915.296 69.76V31.24H926.096V68.32C926.096 74.8 927.736 79.8 931.016 83.32C934.296 86.76 938.776 88.48 944.456 88.48C950.296 88.48 954.896 86.68 958.256 83.08C961.616 79.48 963.296 74.24 963.296 67.36V31.24H974.216Z" />
        <path
            d="M998.294 20.56C996.214 20.56 994.454 19.84 993.014 18.4C991.574 16.96 990.854 15.2 990.854 13.12C990.854 11.04 991.574 9.27997 993.014 7.83997C994.454 6.39997 996.214 5.67999 998.294 5.67999C1000.29 5.67999 1001.97 6.39997 1003.33 7.83997C1004.77 9.27997 1005.49 11.04 1005.49 13.12C1005.49 15.2 1004.77 16.96 1003.33 18.4C1001.97 19.84 1000.29 20.56 998.294 20.56ZM1003.57 31.24V97H992.654V31.24H1003.57Z" />
        <path
            d="M1033.11 41.92C1035.03 38.16 1037.75 35.24 1041.27 33.16C1044.87 31.08 1049.23 30.04 1054.35 30.04V41.32H1051.47C1039.23 41.32 1033.11 47.96 1033.11 61.24V97H1022.19V31.24H1033.11V41.92Z" />
        <path
            d="M1077.87 41.92C1079.79 38.16 1082.51 35.24 1086.03 33.16C1089.63 31.08 1093.99 30.04 1099.11 30.04V41.32H1096.23C1083.99 41.32 1077.87 47.96 1077.87 61.24V97H1066.95V31.24H1077.87V41.92Z" />
        <path
            d="M1171.72 61.6C1171.72 63.68 1171.6 65.88 1171.36 68.2H1118.8C1119.2 74.68 1121.4 79.76 1125.4 83.44C1129.48 87.04 1134.4 88.84 1140.16 88.84C1144.88 88.84 1148.8 87.76 1151.92 85.6C1155.12 83.36 1157.36 80.4 1158.64 76.72H1170.4C1168.64 83.04 1165.12 88.2 1159.84 92.2C1154.56 96.12 1148 98.08 1140.16 98.08C1133.92 98.08 1128.32 96.68 1123.36 93.88C1118.48 91.08 1114.64 87.12 1111.84 82C1109.04 76.8 1107.64 70.8 1107.64 64C1107.64 57.2 1109 51.24 1111.72 46.12C1114.44 41 1118.24 37.08 1123.12 34.36C1128.08 31.56 1133.76 30.16 1140.16 30.16C1146.4 30.16 1151.92 31.52 1156.72 34.24C1161.52 36.96 1165.2 40.72 1167.76 45.52C1170.4 50.24 1171.72 55.6 1171.72 61.6ZM1160.44 59.32C1160.44 55.16 1159.52 51.6 1157.68 48.64C1155.84 45.6 1153.32 43.32 1150.12 41.8C1147 40.2 1143.52 39.4 1139.68 39.4C1134.16 39.4 1129.44 41.16 1125.52 44.68C1121.68 48.2 1119.48 53.08 1118.92 59.32H1160.44Z" />
        <path
            d="M5.01935 243.88C5.01935 237.16 6.37935 231.28 9.09935 226.24C11.8194 221.12 15.5394 217.16 20.2593 214.36C25.0594 211.56 30.4194 210.16 36.3394 210.16C41.4594 210.16 46.2194 211.36 50.6194 213.76C55.0194 216.08 58.3794 219.16 60.6994 223V188.2H71.7393V277H60.6994V264.64C58.5394 268.56 55.3394 271.8 51.0994 274.36C46.8594 276.84 41.8993 278.08 36.2193 278.08C30.3793 278.08 25.0594 276.64 20.2593 273.76C15.5394 270.88 11.8194 266.84 9.09935 261.64C6.37935 256.44 5.01935 250.52 5.01935 243.88ZM60.6994 244C60.6994 239.04 59.6994 234.72 57.6994 231.04C55.6994 227.36 52.9794 224.56 49.5394 222.64C46.1794 220.64 42.4593 219.64 38.3793 219.64C34.2993 219.64 30.5793 220.6 27.2193 222.52C23.8593 224.44 21.1793 227.24 19.1793 230.92C17.1793 234.6 16.1793 238.92 16.1793 243.88C16.1793 248.92 17.1793 253.32 19.1793 257.08C21.1793 260.76 23.8593 263.6 27.2193 265.6C30.5793 267.52 34.2993 268.48 38.3793 268.48C42.4593 268.48 46.1794 267.52 49.5394 265.6C52.9794 263.6 55.6994 260.76 57.6994 257.08C59.6994 253.32 60.6994 248.96 60.6994 244Z" />
        <path
            d="M150.193 241.6C150.193 243.68 150.073 245.88 149.833 248.2H97.2731C97.6731 254.68 99.8731 259.76 103.873 263.44C107.953 267.04 112.873 268.84 118.633 268.84C123.353 268.84 127.273 267.76 130.393 265.6C133.593 263.36 135.833 260.4 137.113 256.72H148.873C147.113 263.04 143.593 268.2 138.313 272.2C133.033 276.12 126.473 278.08 118.633 278.08C112.393 278.08 106.793 276.68 101.833 273.88C96.9531 271.08 93.1131 267.12 90.3131 262C87.5131 256.8 86.1131 250.8 86.1131 244C86.1131 237.2 87.4731 231.24 90.1931 226.12C92.9131 221 96.7131 217.08 101.593 214.36C106.553 211.56 112.233 210.16 118.633 210.16C124.873 210.16 130.393 211.52 135.193 214.24C139.993 216.96 143.673 220.72 146.233 225.52C148.873 230.24 150.193 235.6 150.193 241.6ZM138.913 239.32C138.913 235.16 137.993 231.6 136.153 228.64C134.313 225.6 131.793 223.32 128.593 221.8C125.473 220.2 121.993 219.4 118.153 219.4C112.633 219.4 107.913 221.16 103.993 224.68C100.153 228.2 97.9531 233.08 97.3931 239.32H138.913Z" />
        <path
            d="M187.887 278.08C182.847 278.08 178.327 277.24 174.327 275.56C170.327 273.8 167.167 271.4 164.847 268.36C162.527 265.24 161.247 261.68 161.007 257.68H172.287C172.607 260.96 174.127 263.64 176.847 265.72C179.647 267.8 183.287 268.84 187.767 268.84C191.927 268.84 195.207 267.92 197.607 266.08C200.007 264.24 201.207 261.92 201.207 259.12C201.207 256.24 199.927 254.12 197.367 252.76C194.807 251.32 190.847 249.92 185.487 248.56C180.607 247.28 176.607 246 173.487 244.72C170.447 243.36 167.807 241.4 165.567 238.84C163.407 236.2 162.327 232.76 162.327 228.52C162.327 225.16 163.327 222.08 165.327 219.28C167.327 216.48 170.167 214.28 173.847 212.68C177.527 211 181.727 210.16 186.447 210.16C193.727 210.16 199.607 212 204.087 215.68C208.567 219.36 210.967 224.4 211.287 230.8H200.367C200.127 227.36 198.727 224.6 196.167 222.52C193.687 220.44 190.327 219.4 186.087 219.4C182.167 219.4 179.047 220.24 176.727 221.92C174.407 223.6 173.247 225.8 173.247 228.52C173.247 230.68 173.927 232.48 175.287 233.92C176.727 235.28 178.487 236.4 180.567 237.28C182.727 238.08 185.687 239 189.447 240.04C194.167 241.32 198.007 242.6 200.967 243.88C203.927 245.08 206.447 246.92 208.527 249.4C210.687 251.88 211.807 255.12 211.887 259.12C211.887 262.72 210.887 265.96 208.887 268.84C206.887 271.72 204.047 274 200.367 275.68C196.767 277.28 192.607 278.08 187.887 278.08Z" />
        <path
            d="M223.222 243.88C223.222 237.16 224.582 231.28 227.302 226.24C230.022 221.12 233.742 217.16 238.462 214.36C243.262 211.56 248.582 210.16 254.422 210.16C260.182 210.16 265.182 211.4 269.422 213.88C273.662 216.36 276.822 219.48 278.902 223.24V211.24H289.942V277H278.902V264.76C276.742 268.6 273.502 271.8 269.182 274.36C264.942 276.84 259.982 278.08 254.302 278.08C248.462 278.08 243.182 276.64 238.462 273.76C233.742 270.88 230.022 266.84 227.302 261.64C224.582 256.44 223.222 250.52 223.222 243.88ZM278.902 244C278.902 239.04 277.902 234.72 275.902 231.04C273.902 227.36 271.182 224.56 267.742 222.64C264.382 220.64 260.662 219.64 256.582 219.64C252.502 219.64 248.782 220.6 245.422 222.52C242.062 224.44 239.382 227.24 237.382 230.92C235.382 234.6 234.382 238.92 234.382 243.88C234.382 248.92 235.382 253.32 237.382 257.08C239.382 260.76 242.062 263.6 245.422 265.6C248.782 267.52 252.502 268.48 256.582 268.48C260.662 268.48 264.382 267.52 267.742 265.6C271.182 263.6 273.902 260.76 275.902 257.08C277.902 253.32 278.902 248.96 278.902 244Z" />
        <path
            d="M319.316 221.92C321.236 218.16 323.956 215.24 327.476 213.16C331.076 211.08 335.436 210.04 340.556 210.04V221.32H337.676C325.436 221.32 319.316 227.96 319.316 241.24V277H308.396V211.24H319.316V221.92Z" />
        <path
            d="M364.082 221.92C366.002 218.16 368.722 215.24 372.242 213.16C375.842 211.08 380.202 210.04 385.322 210.04V221.32H382.442C370.202 221.32 364.082 227.96 364.082 241.24V277H353.162V211.24H364.082V221.92Z" />
        <path
            d="M426.607 278.08C420.447 278.08 414.847 276.68 409.807 273.88C404.847 271.08 400.927 267.12 398.047 262C395.247 256.8 393.847 250.8 393.847 244C393.847 237.28 395.287 231.36 398.167 226.24C401.127 221.04 405.127 217.08 410.167 214.36C415.207 211.56 420.847 210.16 427.087 210.16C433.327 210.16 438.967 211.56 444.007 214.36C449.047 217.08 453.007 221 455.887 226.12C458.847 231.24 460.327 237.2 460.327 244C460.327 250.8 458.807 256.8 455.767 262C452.807 267.12 448.767 271.08 443.647 273.88C438.527 276.68 432.847 278.08 426.607 278.08ZM426.607 268.48C430.527 268.48 434.207 267.56 437.647 265.72C441.087 263.88 443.847 261.12 445.927 257.44C448.087 253.76 449.167 249.28 449.167 244C449.167 238.72 448.127 234.24 446.047 230.56C443.967 226.88 441.247 224.16 437.887 222.4C434.527 220.56 430.887 219.64 426.967 219.64C422.967 219.64 419.287 220.56 415.927 222.4C412.647 224.16 410.007 226.88 408.007 230.56C406.007 234.24 405.007 238.72 405.007 244C405.007 249.36 405.967 253.88 407.887 257.56C409.887 261.24 412.527 264 415.807 265.84C419.087 267.6 422.687 268.48 426.607 268.48Z" />
        <path d="M485.605 188.2V277H474.685V188.2H485.605Z" />
        <path d="M515.137 188.2V277H504.217V188.2H515.137Z" />
        <path
            d="M529.668 243.88C529.668 237.16 531.028 231.28 533.748 226.24C536.468 221.12 540.188 217.16 544.908 214.36C549.708 211.56 555.028 210.16 560.868 210.16C566.628 210.16 571.628 211.4 575.868 213.88C580.108 216.36 583.268 219.48 585.348 223.24V211.24H596.388V277H585.348V264.76C583.188 268.6 579.948 271.8 575.628 274.36C571.388 276.84 566.428 278.08 560.748 278.08C554.908 278.08 549.628 276.64 544.908 273.76C540.188 270.88 536.468 266.84 533.748 261.64C531.028 256.44 529.668 250.52 529.668 243.88ZM585.348 244C585.348 239.04 584.348 234.72 582.348 231.04C580.348 227.36 577.628 224.56 574.188 222.64C570.828 220.64 567.108 219.64 563.028 219.64C558.948 219.64 555.228 220.6 551.868 222.52C548.508 224.44 545.828 227.24 543.828 230.92C541.828 234.6 540.828 238.92 540.828 243.88C540.828 248.92 541.828 253.32 543.828 257.08C545.828 260.76 548.508 263.6 551.868 265.6C555.228 267.52 558.948 268.48 563.028 268.48C567.108 268.48 570.828 267.52 574.188 265.6C577.628 263.6 580.348 260.76 582.348 257.08C584.348 253.32 585.348 248.96 585.348 244Z" />
        <path
            d="M610.762 243.88C610.762 237.16 612.122 231.28 614.842 226.24C617.562 221.12 621.282 217.16 626.002 214.36C630.802 211.56 636.162 210.16 642.082 210.16C647.202 210.16 651.962 211.36 656.362 213.76C660.762 216.08 664.122 219.16 666.442 223V188.2H677.482V277H666.442V264.64C664.282 268.56 661.082 271.8 656.842 274.36C652.602 276.84 647.642 278.08 641.962 278.08C636.122 278.08 630.802 276.64 626.002 273.76C621.282 270.88 617.562 266.84 614.842 261.64C612.122 256.44 610.762 250.52 610.762 243.88ZM666.442 244C666.442 239.04 665.442 234.72 663.442 231.04C661.442 227.36 658.722 224.56 655.282 222.64C651.922 220.64 648.202 219.64 644.122 219.64C640.042 219.64 636.322 220.6 632.962 222.52C629.602 224.44 626.922 227.24 624.922 230.92C622.922 234.6 621.922 238.92 621.922 243.88C621.922 248.92 622.922 253.32 624.922 257.08C626.922 260.76 629.602 263.6 632.962 265.6C636.322 267.52 640.042 268.48 644.122 268.48C648.202 268.48 651.922 267.52 655.282 265.6C658.722 263.6 661.442 260.76 663.442 257.08C665.442 253.32 666.442 248.96 666.442 244Z" />
        <path
            d="M724.615 278.08C718.455 278.08 712.855 276.68 707.815 273.88C702.855 271.08 698.935 267.12 696.055 262C693.255 256.8 691.855 250.8 691.855 244C691.855 237.28 693.295 231.36 696.175 226.24C699.135 221.04 703.135 217.08 708.175 214.36C713.215 211.56 718.855 210.16 725.095 210.16C731.335 210.16 736.975 211.56 742.015 214.36C747.055 217.08 751.015 221 753.895 226.12C756.855 231.24 758.335 237.2 758.335 244C758.335 250.8 756.815 256.8 753.775 262C750.815 267.12 746.775 271.08 741.655 273.88C736.535 276.68 730.855 278.08 724.615 278.08ZM724.615 268.48C728.535 268.48 732.215 267.56 735.655 265.72C739.095 263.88 741.855 261.12 743.935 257.44C746.095 253.76 747.175 249.28 747.175 244C747.175 238.72 746.135 234.24 744.055 230.56C741.975 226.88 739.255 224.16 735.895 222.4C732.535 220.56 728.895 219.64 724.975 219.64C720.975 219.64 717.295 220.56 713.935 222.4C710.655 224.16 708.015 226.88 706.015 230.56C704.015 234.24 703.015 238.72 703.015 244C703.015 249.36 703.975 253.88 705.895 257.56C707.895 261.24 710.535 264 713.815 265.84C717.095 267.6 720.695 268.48 724.615 268.48Z" />
        <path
            d="M783.613 221.92C785.533 218.16 788.253 215.24 791.773 213.16C795.373 211.08 799.733 210.04 804.853 210.04V221.32H801.973C789.733 221.32 783.613 227.96 783.613 241.24V277H772.693V211.24H783.613V221.92Z" />
        <path d="M896.731 193.36V202.24H860.371V230.44H889.891V239.32H860.371V277H849.451V193.36H896.731Z" />
        <path
            d="M920.84 221.92C922.76 218.16 925.48 215.24 929 213.16C932.6 211.08 936.96 210.04 942.08 210.04V221.32H939.2C926.96 221.32 920.84 227.96 920.84 241.24V277H909.92V211.24H920.84V221.92Z" />
        <path
            d="M983.365 278.08C977.205 278.08 971.605 276.68 966.565 273.88C961.605 271.08 957.685 267.12 954.805 262C952.005 256.8 950.605 250.8 950.605 244C950.605 237.28 952.045 231.36 954.925 226.24C957.885 221.04 961.885 217.08 966.925 214.36C971.965 211.56 977.605 210.16 983.845 210.16C990.085 210.16 995.725 211.56 1000.77 214.36C1005.81 217.08 1009.77 221 1012.65 226.12C1015.61 231.24 1017.09 237.2 1017.09 244C1017.09 250.8 1015.57 256.8 1012.53 262C1009.57 267.12 1005.53 271.08 1000.41 273.88C995.285 276.68 989.605 278.08 983.365 278.08ZM983.365 268.48C987.285 268.48 990.965 267.56 994.405 265.72C997.845 263.88 1000.61 261.12 1002.69 257.44C1004.85 253.76 1005.93 249.28 1005.93 244C1005.93 238.72 1004.89 234.24 1002.81 230.56C1000.73 226.88 998.005 224.16 994.645 222.4C991.285 220.56 987.645 219.64 983.725 219.64C979.725 219.64 976.045 220.56 972.685 222.4C969.405 224.16 966.765 226.88 964.765 230.56C962.765 234.24 961.765 238.72 961.765 244C961.765 249.36 962.725 253.88 964.645 257.56C966.645 261.24 969.285 264 972.565 265.84C975.845 267.6 979.445 268.48 983.365 268.48Z" />
        <path
            d="M1063.48 210.04C1071.48 210.04 1077.96 212.48 1082.92 217.36C1087.88 222.16 1090.36 229.12 1090.36 238.24V277H1079.56V239.8C1079.56 233.24 1077.92 228.24 1074.64 224.8C1071.36 221.28 1066.88 219.52 1061.2 219.52C1055.44 219.52 1050.84 221.32 1047.4 224.92C1044.04 228.52 1042.36 233.76 1042.36 240.64V277H1031.44V211.24H1042.36V220.6C1044.52 217.24 1047.44 214.64 1051.12 212.8C1054.88 210.96 1059 210.04 1063.48 210.04Z" />
        <path
            d="M1121.52 220.24V259C1121.52 262.2 1122.2 264.48 1123.56 265.84C1124.92 267.12 1127.28 267.76 1130.64 267.76H1138.68V277H1128.84C1122.76 277 1118.2 275.6 1115.16 272.8C1112.12 270 1110.6 265.4 1110.6 259V220.24H1102.08V211.24H1110.6V194.68H1121.52V211.24H1138.68V220.24H1121.52Z" />
        <path d="M1197.51 228.4V237.64H1149.63V228.4H1197.51Z" />
        <path
            d="M1228.93 202.24V230.2H1259.41V239.2H1228.93V268H1263.01V277H1218.01V193.24H1263.01V202.24H1228.93Z" />
        <path
            d="M1311.57 210.04C1319.57 210.04 1326.05 212.48 1331.01 217.36C1335.97 222.16 1338.45 229.12 1338.45 238.24V277H1327.65V239.8C1327.65 233.24 1326.01 228.24 1322.73 224.8C1319.45 221.28 1314.97 219.52 1309.29 219.52C1303.53 219.52 1298.93 221.32 1295.49 224.92C1292.13 228.52 1290.45 233.76 1290.45 240.64V277H1279.53V211.24H1290.45V220.6C1292.61 217.24 1295.53 214.64 1299.21 212.8C1302.97 210.96 1307.09 210.04 1311.57 210.04Z" />
        <path
            d="M1352.21 243.88C1352.21 237.16 1353.57 231.28 1356.29 226.24C1359.01 221.12 1362.73 217.16 1367.45 214.36C1372.25 211.56 1377.61 210.16 1383.53 210.16C1388.65 210.16 1393.41 211.36 1397.81 213.76C1402.21 216.08 1405.57 219.16 1407.89 223V188.2H1418.93V277H1407.89V264.64C1405.73 268.56 1402.53 271.8 1398.29 274.36C1394.05 276.84 1389.09 278.08 1383.41 278.08C1377.57 278.08 1372.25 276.64 1367.45 273.76C1362.73 270.88 1359.01 266.84 1356.29 261.64C1353.57 256.44 1352.21 250.52 1352.21 243.88ZM1407.89 244C1407.89 239.04 1406.89 234.72 1404.89 231.04C1402.89 227.36 1400.17 224.56 1396.73 222.64C1393.37 220.64 1389.65 219.64 1385.57 219.64C1381.49 219.64 1377.77 220.6 1374.41 222.52C1371.05 224.44 1368.37 227.24 1366.37 230.92C1364.37 234.6 1363.37 238.92 1363.37 243.88C1363.37 248.92 1364.37 253.32 1366.37 257.08C1368.37 260.76 1371.05 263.6 1374.41 265.6C1377.77 267.52 1381.49 268.48 1385.57 268.48C1389.65 268.48 1393.37 267.52 1396.73 265.6C1400.17 263.6 1402.89 260.76 1404.89 257.08C1406.89 253.32 1407.89 248.96 1407.89 244Z" />
    </mask>
    <path
        d="M255.117 40.24H241.317V97H230.397V40.24H221.877V31.24H230.397V26.56C230.397 19.2 232.277 13.84 236.037 10.48C239.877 7.03998 245.997 5.32001 254.397 5.32001V14.44C249.597 14.44 246.197 15.4 244.197 17.32C242.277 19.16 241.317 22.24 241.317 26.56V31.24H255.117V40.24Z"
        stroke="white" stroke-width="10" mask="url(#path-1-outside-1)" />
    <path
        d="M327.849 61.6C327.849 63.68 327.729 65.88 327.489 68.2H274.929C275.329 74.68 277.529 79.76 281.529 83.44C285.609 87.04 290.529 88.84 296.289 88.84C301.009 88.84 304.929 87.76 308.049 85.6C311.249 83.36 313.489 80.4 314.769 76.72H326.529C324.769 83.04 321.249 88.2 315.969 92.2C310.689 96.12 304.129 98.08 296.289 98.08C290.049 98.08 284.449 96.68 279.489 93.88C274.609 91.08 270.769 87.12 267.969 82C265.169 76.8 263.769 70.8 263.769 64C263.769 57.2 265.129 51.24 267.849 46.12C270.569 41 274.369 37.08 279.249 34.36C284.209 31.56 289.889 30.16 296.289 30.16C302.529 30.16 308.049 31.52 312.849 34.24C317.649 36.96 321.329 40.72 323.889 45.52C326.529 50.24 327.849 55.6 327.849 61.6ZM316.569 59.32C316.569 55.16 315.649 51.6 313.809 48.64C311.969 45.6 309.449 43.32 306.249 41.8C303.129 40.2 299.649 39.4 295.809 39.4C290.289 39.4 285.569 41.16 281.649 44.68C277.809 48.2 275.609 53.08 275.049 59.32H316.569Z"
        stroke="white" stroke-width="10" mask="url(#path-1-outside-1)" />
    <path
        d="M338.183 63.88C338.183 57.16 339.543 51.28 342.263 46.24C344.983 41.12 348.703 37.16 353.423 34.36C358.223 31.56 363.583 30.16 369.503 30.16C374.623 30.16 379.383 31.36 383.783 33.76C388.183 36.08 391.543 39.16 393.863 43V8.20001H404.903V97H393.863V84.64C391.703 88.56 388.503 91.8 384.263 94.36C380.023 96.84 375.063 98.08 369.383 98.08C363.543 98.08 358.223 96.64 353.423 93.76C348.703 90.88 344.983 86.84 342.263 81.64C339.543 76.44 338.183 70.52 338.183 63.88ZM393.863 64C393.863 59.04 392.863 54.72 390.863 51.04C388.863 47.36 386.143 44.56 382.703 42.64C379.343 40.64 375.623 39.64 371.543 39.64C367.463 39.64 363.743 40.6 360.383 42.52C357.023 44.44 354.343 47.24 352.343 50.92C350.343 54.6 349.343 58.92 349.343 63.88C349.343 68.92 350.343 73.32 352.343 77.08C354.343 80.76 357.023 83.6 360.383 85.6C363.743 87.52 367.463 88.48 371.543 88.48C375.623 88.48 379.343 87.52 382.703 85.6C386.143 83.6 388.863 80.76 390.863 77.08C392.863 73.32 393.863 68.96 393.863 64Z"
        stroke="white" stroke-width="10" mask="url(#path-1-outside-1)" />
    <path
        d="M483.357 61.6C483.357 63.68 483.237 65.88 482.997 68.2H430.437C430.837 74.68 433.037 79.76 437.037 83.44C441.117 87.04 446.037 88.84 451.797 88.84C456.517 88.84 460.437 87.76 463.557 85.6C466.757 83.36 468.997 80.4 470.277 76.72H482.037C480.277 83.04 476.757 88.2 471.477 92.2C466.197 96.12 459.637 98.08 451.797 98.08C445.557 98.08 439.957 96.68 434.997 93.88C430.117 91.08 426.277 87.12 423.477 82C420.677 76.8 419.277 70.8 419.277 64C419.277 57.2 420.637 51.24 423.357 46.12C426.077 41 429.877 37.08 434.757 34.36C439.717 31.56 445.397 30.16 451.797 30.16C458.037 30.16 463.557 31.52 468.357 34.24C473.157 36.96 476.837 40.72 479.397 45.52C482.037 50.24 483.357 55.6 483.357 61.6ZM472.077 59.32C472.077 55.16 471.157 51.6 469.317 48.64C467.477 45.6 464.957 43.32 461.757 41.8C458.637 40.2 455.157 39.4 451.317 39.4C445.797 39.4 441.077 41.16 437.157 44.68C433.317 48.2 431.117 53.08 430.557 59.32H472.077Z"
        stroke="white" stroke-width="10" mask="url(#path-1-outside-1)" />
    <path
        d="M508.691 41.92C510.611 38.16 513.331 35.24 516.851 33.16C520.451 31.08 524.811 30.04 529.931 30.04V41.32H527.051C514.811 41.32 508.691 47.96 508.691 61.24V97H497.771V31.24H508.691V41.92Z"
        stroke="white" stroke-width="10" mask="url(#path-1-outside-1)" />
    <path
        d="M548.177 20.56C546.097 20.56 544.337 19.84 542.897 18.4C541.457 16.96 540.737 15.2 540.737 13.12C540.737 11.04 541.457 9.27997 542.897 7.83997C544.337 6.39997 546.097 5.67999 548.177 5.67999C550.177 5.67999 551.857 6.39997 553.217 7.83997C554.657 9.27997 555.377 11.04 555.377 13.12C555.377 15.2 554.657 16.96 553.217 18.4C551.857 19.84 550.177 20.56 548.177 20.56ZM553.457 31.24V97H542.537V31.24H553.457Z"
        stroke="white" stroke-width="10" mask="url(#path-1-outside-1)" />
    <path
        d="M567.988 64C567.988 57.2 569.348 51.28 572.068 46.24C574.788 41.12 578.548 37.16 583.348 34.36C588.228 31.56 593.788 30.16 600.028 30.16C608.108 30.16 614.748 32.12 619.948 36.04C625.228 39.96 628.708 45.4 630.388 52.36H618.628C617.508 48.36 615.308 45.2 612.028 42.88C608.828 40.56 604.828 39.4 600.028 39.4C593.788 39.4 588.748 41.56 584.908 45.88C581.068 50.12 579.148 56.16 579.148 64C579.148 71.92 581.068 78.04 584.908 82.36C588.748 86.68 593.788 88.84 600.028 88.84C604.828 88.84 608.828 87.72 612.028 85.48C615.228 83.24 617.428 80.04 618.628 75.88H630.388C628.628 82.6 625.108 88 619.828 92.08C614.548 96.08 607.948 98.08 600.028 98.08C593.788 98.08 588.228 96.68 583.348 93.88C578.548 91.08 574.788 87.12 572.068 82C569.348 76.88 567.988 70.88 567.988 64Z"
        stroke="white" stroke-width="10" mask="url(#path-1-outside-1)" />
    <path
        d="M673.639 98.08C667.479 98.08 661.879 96.68 656.839 93.88C651.879 91.08 647.959 87.12 645.079 82C642.279 76.8 640.879 70.8 640.879 64C640.879 57.28 642.319 51.36 645.199 46.24C648.159 41.04 652.159 37.08 657.199 34.36C662.239 31.56 667.879 30.16 674.119 30.16C680.359 30.16 685.999 31.56 691.039 34.36C696.079 37.08 700.039 41 702.919 46.12C705.879 51.24 707.359 57.2 707.359 64C707.359 70.8 705.839 76.8 702.799 82C699.839 87.12 695.799 91.08 690.679 93.88C685.559 96.68 679.879 98.08 673.639 98.08ZM673.639 88.48C677.559 88.48 681.239 87.56 684.679 85.72C688.119 83.88 690.879 81.12 692.959 77.44C695.119 73.76 696.199 69.28 696.199 64C696.199 58.72 695.159 54.24 693.079 50.56C690.999 46.88 688.279 44.16 684.919 42.4C681.559 40.56 677.919 39.64 673.999 39.64C669.999 39.64 666.319 40.56 662.959 42.4C659.679 44.16 657.039 46.88 655.039 50.56C653.039 54.24 652.039 58.72 652.039 64C652.039 69.36 652.999 73.88 654.919 77.56C656.919 81.24 659.559 84 662.839 85.84C666.119 87.6 669.719 88.48 673.639 88.48Z"
        stroke="white" stroke-width="10" mask="url(#path-1-outside-1)" />
    <path
        d="M749.629 63.88C749.629 57.16 750.989 51.28 753.709 46.24C756.429 41.12 760.149 37.16 764.869 34.36C769.669 31.56 774.989 30.16 780.829 30.16C786.589 30.16 791.589 31.4 795.829 33.88C800.069 36.36 803.229 39.48 805.309 43.24V31.24H816.349V97H805.309V84.76C803.149 88.6 799.909 91.8 795.589 94.36C791.349 96.84 786.389 98.08 780.709 98.08C774.869 98.08 769.589 96.64 764.869 93.76C760.149 90.88 756.429 86.84 753.709 81.64C750.989 76.44 749.629 70.52 749.629 63.88ZM805.309 64C805.309 59.04 804.309 54.72 802.309 51.04C800.309 47.36 797.589 44.56 794.149 42.64C790.789 40.64 787.069 39.64 782.989 39.64C778.909 39.64 775.189 40.6 771.829 42.52C768.469 44.44 765.789 47.24 763.789 50.92C761.789 54.6 760.789 58.92 760.789 63.88C760.789 68.92 761.789 73.32 763.789 77.08C765.789 80.76 768.469 83.6 771.829 85.6C775.189 87.52 778.909 88.48 782.989 88.48C787.069 88.48 790.789 87.52 794.149 85.6C797.589 83.6 800.309 80.76 802.309 77.08C804.309 73.32 805.309 68.96 805.309 64Z"
        stroke="white" stroke-width="10" mask="url(#path-1-outside-1)" />
    <path
        d="M861.922 30.16C867.602 30.16 872.562 31.4 876.802 33.88C881.122 36.36 884.323 39.48 886.403 43.24V31.24H897.443V98.44C897.443 104.44 896.162 109.76 893.602 114.4C891.042 119.12 887.363 122.8 882.562 125.44C877.842 128.08 872.323 129.4 866.003 129.4C857.363 129.4 850.163 127.36 844.403 123.28C838.643 119.2 835.243 113.64 834.203 106.6H845.003C846.203 110.6 848.683 113.8 852.443 116.2C856.203 118.68 860.723 119.92 866.003 119.92C872.003 119.92 876.883 118.04 880.643 114.28C884.483 110.52 886.403 105.24 886.403 98.44V84.64C884.243 88.48 881.042 91.68 876.802 94.24C872.562 96.8 867.602 98.08 861.922 98.08C856.082 98.08 850.763 96.64 845.963 93.76C841.243 90.88 837.522 86.84 834.802 81.64C832.082 76.44 830.722 70.52 830.722 63.88C830.722 57.16 832.082 51.28 834.802 46.24C837.522 41.12 841.243 37.16 845.963 34.36C850.763 31.56 856.082 30.16 861.922 30.16ZM886.403 64C886.403 59.04 885.403 54.72 883.403 51.04C881.403 47.36 878.682 44.56 875.242 42.64C871.882 40.64 868.163 39.64 864.083 39.64C860.003 39.64 856.282 40.6 852.922 42.52C849.562 44.44 846.883 47.24 844.883 50.92C842.883 54.6 841.883 58.92 841.883 63.88C841.883 68.92 842.883 73.32 844.883 77.08C846.883 80.76 849.562 83.6 852.922 85.6C856.282 87.52 860.003 88.48 864.083 88.48C868.163 88.48 871.882 87.52 875.242 85.6C878.682 83.6 881.403 80.76 883.403 77.08C885.403 73.32 886.403 68.96 886.403 64Z"
        stroke="white" stroke-width="10" mask="url(#path-1-outside-1)" />
    <path
        d="M974.216 31.24V97H963.296V87.28C961.216 90.64 958.296 93.28 954.536 95.2C950.856 97.04 946.776 97.96 942.296 97.96C937.176 97.96 932.576 96.92 928.496 94.84C924.416 92.68 921.176 89.48 918.776 85.24C916.456 81 915.296 75.84 915.296 69.76V31.24H926.096V68.32C926.096 74.8 927.736 79.8 931.016 83.32C934.296 86.76 938.776 88.48 944.456 88.48C950.296 88.48 954.896 86.68 958.256 83.08C961.616 79.48 963.296 74.24 963.296 67.36V31.24H974.216Z"
        stroke="white" stroke-width="10" mask="url(#path-1-outside-1)" />
    <path
        d="M998.294 20.56C996.214 20.56 994.454 19.84 993.014 18.4C991.574 16.96 990.854 15.2 990.854 13.12C990.854 11.04 991.574 9.27997 993.014 7.83997C994.454 6.39997 996.214 5.67999 998.294 5.67999C1000.29 5.67999 1001.97 6.39997 1003.33 7.83997C1004.77 9.27997 1005.49 11.04 1005.49 13.12C1005.49 15.2 1004.77 16.96 1003.33 18.4C1001.97 19.84 1000.29 20.56 998.294 20.56ZM1003.57 31.24V97H992.654V31.24H1003.57Z"
        stroke="white" stroke-width="10" mask="url(#path-1-outside-1)" />
    <path
        d="M1033.11 41.92C1035.03 38.16 1037.75 35.24 1041.27 33.16C1044.87 31.08 1049.23 30.04 1054.35 30.04V41.32H1051.47C1039.23 41.32 1033.11 47.96 1033.11 61.24V97H1022.19V31.24H1033.11V41.92Z"
        stroke="white" stroke-width="10" mask="url(#path-1-outside-1)" />
    <path
        d="M1077.87 41.92C1079.79 38.16 1082.51 35.24 1086.03 33.16C1089.63 31.08 1093.99 30.04 1099.11 30.04V41.32H1096.23C1083.99 41.32 1077.87 47.96 1077.87 61.24V97H1066.95V31.24H1077.87V41.92Z"
        stroke="white" stroke-width="10" mask="url(#path-1-outside-1)" />
    <path
        d="M1171.72 61.6C1171.72 63.68 1171.6 65.88 1171.36 68.2H1118.8C1119.2 74.68 1121.4 79.76 1125.4 83.44C1129.48 87.04 1134.4 88.84 1140.16 88.84C1144.88 88.84 1148.8 87.76 1151.92 85.6C1155.12 83.36 1157.36 80.4 1158.64 76.72H1170.4C1168.64 83.04 1165.12 88.2 1159.84 92.2C1154.56 96.12 1148 98.08 1140.16 98.08C1133.92 98.08 1128.32 96.68 1123.36 93.88C1118.48 91.08 1114.64 87.12 1111.84 82C1109.04 76.8 1107.64 70.8 1107.64 64C1107.64 57.2 1109 51.24 1111.72 46.12C1114.44 41 1118.24 37.08 1123.12 34.36C1128.08 31.56 1133.76 30.16 1140.16 30.16C1146.4 30.16 1151.92 31.52 1156.72 34.24C1161.52 36.96 1165.2 40.72 1167.76 45.52C1170.4 50.24 1171.72 55.6 1171.72 61.6ZM1160.44 59.32C1160.44 55.16 1159.52 51.6 1157.68 48.64C1155.84 45.6 1153.32 43.32 1150.12 41.8C1147 40.2 1143.52 39.4 1139.68 39.4C1134.16 39.4 1129.44 41.16 1125.52 44.68C1121.68 48.2 1119.48 53.08 1118.92 59.32H1160.44Z"
        stroke="white" stroke-width="10" mask="url(#path-1-outside-1)" />
    <path
        d="M5.01935 243.88C5.01935 237.16 6.37935 231.28 9.09935 226.24C11.8194 221.12 15.5394 217.16 20.2593 214.36C25.0594 211.56 30.4194 210.16 36.3394 210.16C41.4594 210.16 46.2194 211.36 50.6194 213.76C55.0194 216.08 58.3794 219.16 60.6994 223V188.2H71.7393V277H60.6994V264.64C58.5394 268.56 55.3394 271.8 51.0994 274.36C46.8594 276.84 41.8993 278.08 36.2193 278.08C30.3793 278.08 25.0594 276.64 20.2593 273.76C15.5394 270.88 11.8194 266.84 9.09935 261.64C6.37935 256.44 5.01935 250.52 5.01935 243.88ZM60.6994 244C60.6994 239.04 59.6994 234.72 57.6994 231.04C55.6994 227.36 52.9794 224.56 49.5394 222.64C46.1794 220.64 42.4593 219.64 38.3793 219.64C34.2993 219.64 30.5793 220.6 27.2193 222.52C23.8593 224.44 21.1793 227.24 19.1793 230.92C17.1793 234.6 16.1793 238.92 16.1793 243.88C16.1793 248.92 17.1793 253.32 19.1793 257.08C21.1793 260.76 23.8593 263.6 27.2193 265.6C30.5793 267.52 34.2993 268.48 38.3793 268.48C42.4593 268.48 46.1794 267.52 49.5394 265.6C52.9794 263.6 55.6994 260.76 57.6994 257.08C59.6994 253.32 60.6994 248.96 60.6994 244Z"
        stroke="white" stroke-width="10" mask="url(#path-1-outside-1)" />
    <path
        d="M150.193 241.6C150.193 243.68 150.073 245.88 149.833 248.2H97.2731C97.6731 254.68 99.8731 259.76 103.873 263.44C107.953 267.04 112.873 268.84 118.633 268.84C123.353 268.84 127.273 267.76 130.393 265.6C133.593 263.36 135.833 260.4 137.113 256.72H148.873C147.113 263.04 143.593 268.2 138.313 272.2C133.033 276.12 126.473 278.08 118.633 278.08C112.393 278.08 106.793 276.68 101.833 273.88C96.9531 271.08 93.1131 267.12 90.3131 262C87.5131 256.8 86.1131 250.8 86.1131 244C86.1131 237.2 87.4731 231.24 90.1931 226.12C92.9131 221 96.7131 217.08 101.593 214.36C106.553 211.56 112.233 210.16 118.633 210.16C124.873 210.16 130.393 211.52 135.193 214.24C139.993 216.96 143.673 220.72 146.233 225.52C148.873 230.24 150.193 235.6 150.193 241.6ZM138.913 239.32C138.913 235.16 137.993 231.6 136.153 228.64C134.313 225.6 131.793 223.32 128.593 221.8C125.473 220.2 121.993 219.4 118.153 219.4C112.633 219.4 107.913 221.16 103.993 224.68C100.153 228.2 97.9531 233.08 97.3931 239.32H138.913Z"
        stroke="white" stroke-width="10" mask="url(#path-1-outside-1)" />
    <path
        d="M187.887 278.08C182.847 278.08 178.327 277.24 174.327 275.56C170.327 273.8 167.167 271.4 164.847 268.36C162.527 265.24 161.247 261.68 161.007 257.68H172.287C172.607 260.96 174.127 263.64 176.847 265.72C179.647 267.8 183.287 268.84 187.767 268.84C191.927 268.84 195.207 267.92 197.607 266.08C200.007 264.24 201.207 261.92 201.207 259.12C201.207 256.24 199.927 254.12 197.367 252.76C194.807 251.32 190.847 249.92 185.487 248.56C180.607 247.28 176.607 246 173.487 244.72C170.447 243.36 167.807 241.4 165.567 238.84C163.407 236.2 162.327 232.76 162.327 228.52C162.327 225.16 163.327 222.08 165.327 219.28C167.327 216.48 170.167 214.28 173.847 212.68C177.527 211 181.727 210.16 186.447 210.16C193.727 210.16 199.607 212 204.087 215.68C208.567 219.36 210.967 224.4 211.287 230.8H200.367C200.127 227.36 198.727 224.6 196.167 222.52C193.687 220.44 190.327 219.4 186.087 219.4C182.167 219.4 179.047 220.24 176.727 221.92C174.407 223.6 173.247 225.8 173.247 228.52C173.247 230.68 173.927 232.48 175.287 233.92C176.727 235.28 178.487 236.4 180.567 237.28C182.727 238.08 185.687 239 189.447 240.04C194.167 241.32 198.007 242.6 200.967 243.88C203.927 245.08 206.447 246.92 208.527 249.4C210.687 251.88 211.807 255.12 211.887 259.12C211.887 262.72 210.887 265.96 208.887 268.84C206.887 271.72 204.047 274 200.367 275.68C196.767 277.28 192.607 278.08 187.887 278.08Z"
        stroke="white" stroke-width="10" mask="url(#path-1-outside-1)" />
    <path
        d="M223.222 243.88C223.222 237.16 224.582 231.28 227.302 226.24C230.022 221.12 233.742 217.16 238.462 214.36C243.262 211.56 248.582 210.16 254.422 210.16C260.182 210.16 265.182 211.4 269.422 213.88C273.662 216.36 276.822 219.48 278.902 223.24V211.24H289.942V277H278.902V264.76C276.742 268.6 273.502 271.8 269.182 274.36C264.942 276.84 259.982 278.08 254.302 278.08C248.462 278.08 243.182 276.64 238.462 273.76C233.742 270.88 230.022 266.84 227.302 261.64C224.582 256.44 223.222 250.52 223.222 243.88ZM278.902 244C278.902 239.04 277.902 234.72 275.902 231.04C273.902 227.36 271.182 224.56 267.742 222.64C264.382 220.64 260.662 219.64 256.582 219.64C252.502 219.64 248.782 220.6 245.422 222.52C242.062 224.44 239.382 227.24 237.382 230.92C235.382 234.6 234.382 238.92 234.382 243.88C234.382 248.92 235.382 253.32 237.382 257.08C239.382 260.76 242.062 263.6 245.422 265.6C248.782 267.52 252.502 268.48 256.582 268.48C260.662 268.48 264.382 267.52 267.742 265.6C271.182 263.6 273.902 260.76 275.902 257.08C277.902 253.32 278.902 248.96 278.902 244Z"
        stroke="white" stroke-width="10" mask="url(#path-1-outside-1)" />
    <path
        d="M319.316 221.92C321.236 218.16 323.956 215.24 327.476 213.16C331.076 211.08 335.436 210.04 340.556 210.04V221.32H337.676C325.436 221.32 319.316 227.96 319.316 241.24V277H308.396V211.24H319.316V221.92Z"
        stroke="white" stroke-width="10" mask="url(#path-1-outside-1)" />
    <path
        d="M364.082 221.92C366.002 218.16 368.722 215.24 372.242 213.16C375.842 211.08 380.202 210.04 385.322 210.04V221.32H382.442C370.202 221.32 364.082 227.96 364.082 241.24V277H353.162V211.24H364.082V221.92Z"
        stroke="white" stroke-width="10" mask="url(#path-1-outside-1)" />
    <path
        d="M426.607 278.08C420.447 278.08 414.847 276.68 409.807 273.88C404.847 271.08 400.927 267.12 398.047 262C395.247 256.8 393.847 250.8 393.847 244C393.847 237.28 395.287 231.36 398.167 226.24C401.127 221.04 405.127 217.08 410.167 214.36C415.207 211.56 420.847 210.16 427.087 210.16C433.327 210.16 438.967 211.56 444.007 214.36C449.047 217.08 453.007 221 455.887 226.12C458.847 231.24 460.327 237.2 460.327 244C460.327 250.8 458.807 256.8 455.767 262C452.807 267.12 448.767 271.08 443.647 273.88C438.527 276.68 432.847 278.08 426.607 278.08ZM426.607 268.48C430.527 268.48 434.207 267.56 437.647 265.72C441.087 263.88 443.847 261.12 445.927 257.44C448.087 253.76 449.167 249.28 449.167 244C449.167 238.72 448.127 234.24 446.047 230.56C443.967 226.88 441.247 224.16 437.887 222.4C434.527 220.56 430.887 219.64 426.967 219.64C422.967 219.64 419.287 220.56 415.927 222.4C412.647 224.16 410.007 226.88 408.007 230.56C406.007 234.24 405.007 238.72 405.007 244C405.007 249.36 405.967 253.88 407.887 257.56C409.887 261.24 412.527 264 415.807 265.84C419.087 267.6 422.687 268.48 426.607 268.48Z"
        stroke="white" stroke-width="10" mask="url(#path-1-outside-1)" />
    <path d="M485.605 188.2V277H474.685V188.2H485.605Z" stroke="white" stroke-width="10"
        mask="url(#path-1-outside-1)" />
    <path d="M515.137 188.2V277H504.217V188.2H515.137Z" stroke="white" stroke-width="10"
        mask="url(#path-1-outside-1)" />
    <path
        d="M529.668 243.88C529.668 237.16 531.028 231.28 533.748 226.24C536.468 221.12 540.188 217.16 544.908 214.36C549.708 211.56 555.028 210.16 560.868 210.16C566.628 210.16 571.628 211.4 575.868 213.88C580.108 216.36 583.268 219.48 585.348 223.24V211.24H596.388V277H585.348V264.76C583.188 268.6 579.948 271.8 575.628 274.36C571.388 276.84 566.428 278.08 560.748 278.08C554.908 278.08 549.628 276.64 544.908 273.76C540.188 270.88 536.468 266.84 533.748 261.64C531.028 256.44 529.668 250.52 529.668 243.88ZM585.348 244C585.348 239.04 584.348 234.72 582.348 231.04C580.348 227.36 577.628 224.56 574.188 222.64C570.828 220.64 567.108 219.64 563.028 219.64C558.948 219.64 555.228 220.6 551.868 222.52C548.508 224.44 545.828 227.24 543.828 230.92C541.828 234.6 540.828 238.92 540.828 243.88C540.828 248.92 541.828 253.32 543.828 257.08C545.828 260.76 548.508 263.6 551.868 265.6C555.228 267.52 558.948 268.48 563.028 268.48C567.108 268.48 570.828 267.52 574.188 265.6C577.628 263.6 580.348 260.76 582.348 257.08C584.348 253.32 585.348 248.96 585.348 244Z"
        stroke="white" stroke-width="10" mask="url(#path-1-outside-1)" />
    <path
        d="M610.762 243.88C610.762 237.16 612.122 231.28 614.842 226.24C617.562 221.12 621.282 217.16 626.002 214.36C630.802 211.56 636.162 210.16 642.082 210.16C647.202 210.16 651.962 211.36 656.362 213.76C660.762 216.08 664.122 219.16 666.442 223V188.2H677.482V277H666.442V264.64C664.282 268.56 661.082 271.8 656.842 274.36C652.602 276.84 647.642 278.08 641.962 278.08C636.122 278.08 630.802 276.64 626.002 273.76C621.282 270.88 617.562 266.84 614.842 261.64C612.122 256.44 610.762 250.52 610.762 243.88ZM666.442 244C666.442 239.04 665.442 234.72 663.442 231.04C661.442 227.36 658.722 224.56 655.282 222.64C651.922 220.64 648.202 219.64 644.122 219.64C640.042 219.64 636.322 220.6 632.962 222.52C629.602 224.44 626.922 227.24 624.922 230.92C622.922 234.6 621.922 238.92 621.922 243.88C621.922 248.92 622.922 253.32 624.922 257.08C626.922 260.76 629.602 263.6 632.962 265.6C636.322 267.52 640.042 268.48 644.122 268.48C648.202 268.48 651.922 267.52 655.282 265.6C658.722 263.6 661.442 260.76 663.442 257.08C665.442 253.32 666.442 248.96 666.442 244Z"
        stroke="white" stroke-width="10" mask="url(#path-1-outside-1)" />
    <path
        d="M724.615 278.08C718.455 278.08 712.855 276.68 707.815 273.88C702.855 271.08 698.935 267.12 696.055 262C693.255 256.8 691.855 250.8 691.855 244C691.855 237.28 693.295 231.36 696.175 226.24C699.135 221.04 703.135 217.08 708.175 214.36C713.215 211.56 718.855 210.16 725.095 210.16C731.335 210.16 736.975 211.56 742.015 214.36C747.055 217.08 751.015 221 753.895 226.12C756.855 231.24 758.335 237.2 758.335 244C758.335 250.8 756.815 256.8 753.775 262C750.815 267.12 746.775 271.08 741.655 273.88C736.535 276.68 730.855 278.08 724.615 278.08ZM724.615 268.48C728.535 268.48 732.215 267.56 735.655 265.72C739.095 263.88 741.855 261.12 743.935 257.44C746.095 253.76 747.175 249.28 747.175 244C747.175 238.72 746.135 234.24 744.055 230.56C741.975 226.88 739.255 224.16 735.895 222.4C732.535 220.56 728.895 219.64 724.975 219.64C720.975 219.64 717.295 220.56 713.935 222.4C710.655 224.16 708.015 226.88 706.015 230.56C704.015 234.24 703.015 238.72 703.015 244C703.015 249.36 703.975 253.88 705.895 257.56C707.895 261.24 710.535 264 713.815 265.84C717.095 267.6 720.695 268.48 724.615 268.48Z"
        stroke="white" stroke-width="10" mask="url(#path-1-outside-1)" />
    <path
        d="M783.613 221.92C785.533 218.16 788.253 215.24 791.773 213.16C795.373 211.08 799.733 210.04 804.853 210.04V221.32H801.973C789.733 221.32 783.613 227.96 783.613 241.24V277H772.693V211.24H783.613V221.92Z"
        stroke="white" stroke-width="10" mask="url(#path-1-outside-1)" />
    <path d="M896.731 193.36V202.24H860.371V230.44H889.891V239.32H860.371V277H849.451V193.36H896.731Z"
        stroke="white" stroke-width="10" mask="url(#path-1-outside-1)" />
    <path
        d="M920.84 221.92C922.76 218.16 925.48 215.24 929 213.16C932.6 211.08 936.96 210.04 942.08 210.04V221.32H939.2C926.96 221.32 920.84 227.96 920.84 241.24V277H909.92V211.24H920.84V221.92Z"
        stroke="white" stroke-width="10" mask="url(#path-1-outside-1)" />
    <path
        d="M983.365 278.08C977.205 278.08 971.605 276.68 966.565 273.88C961.605 271.08 957.685 267.12 954.805 262C952.005 256.8 950.605 250.8 950.605 244C950.605 237.28 952.045 231.36 954.925 226.24C957.885 221.04 961.885 217.08 966.925 214.36C971.965 211.56 977.605 210.16 983.845 210.16C990.085 210.16 995.725 211.56 1000.77 214.36C1005.81 217.08 1009.77 221 1012.65 226.12C1015.61 231.24 1017.09 237.2 1017.09 244C1017.09 250.8 1015.57 256.8 1012.53 262C1009.57 267.12 1005.53 271.08 1000.41 273.88C995.285 276.68 989.605 278.08 983.365 278.08ZM983.365 268.48C987.285 268.48 990.965 267.56 994.405 265.72C997.845 263.88 1000.61 261.12 1002.69 257.44C1004.85 253.76 1005.93 249.28 1005.93 244C1005.93 238.72 1004.89 234.24 1002.81 230.56C1000.73 226.88 998.005 224.16 994.645 222.4C991.285 220.56 987.645 219.64 983.725 219.64C979.725 219.64 976.045 220.56 972.685 222.4C969.405 224.16 966.765 226.88 964.765 230.56C962.765 234.24 961.765 238.72 961.765 244C961.765 249.36 962.725 253.88 964.645 257.56C966.645 261.24 969.285 264 972.565 265.84C975.845 267.6 979.445 268.48 983.365 268.48Z"
        stroke="white" stroke-width="10" mask="url(#path-1-outside-1)" />
    <path
        d="M1063.48 210.04C1071.48 210.04 1077.96 212.48 1082.92 217.36C1087.88 222.16 1090.36 229.12 1090.36 238.24V277H1079.56V239.8C1079.56 233.24 1077.92 228.24 1074.64 224.8C1071.36 221.28 1066.88 219.52 1061.2 219.52C1055.44 219.52 1050.84 221.32 1047.4 224.92C1044.04 228.52 1042.36 233.76 1042.36 240.64V277H1031.44V211.24H1042.36V220.6C1044.52 217.24 1047.44 214.64 1051.12 212.8C1054.88 210.96 1059 210.04 1063.48 210.04Z"
        stroke="white" stroke-width="10" mask="url(#path-1-outside-1)" />
    <path
        d="M1121.52 220.24V259C1121.52 262.2 1122.2 264.48 1123.56 265.84C1124.92 267.12 1127.28 267.76 1130.64 267.76H1138.68V277H1128.84C1122.76 277 1118.2 275.6 1115.16 272.8C1112.12 270 1110.6 265.4 1110.6 259V220.24H1102.08V211.24H1110.6V194.68H1121.52V211.24H1138.68V220.24H1121.52Z"
        stroke="white" stroke-width="10" mask="url(#path-1-outside-1)" />
    <path d="M1197.51 228.4V237.64H1149.63V228.4H1197.51Z" stroke="white" stroke-width="10"
        mask="url(#path-1-outside-1)" />
    <path d="M1228.93 202.24V230.2H1259.41V239.2H1228.93V268H1263.01V277H1218.01V193.24H1263.01V202.24H1228.93Z"
        stroke="white" stroke-width="10" mask="url(#path-1-outside-1)" />
    <path
        d="M1311.57 210.04C1319.57 210.04 1326.05 212.48 1331.01 217.36C1335.97 222.16 1338.45 229.12 1338.45 238.24V277H1327.65V239.8C1327.65 233.24 1326.01 228.24 1322.73 224.8C1319.45 221.28 1314.97 219.52 1309.29 219.52C1303.53 219.52 1298.93 221.32 1295.49 224.92C1292.13 228.52 1290.45 233.76 1290.45 240.64V277H1279.53V211.24H1290.45V220.6C1292.61 217.24 1295.53 214.64 1299.21 212.8C1302.97 210.96 1307.09 210.04 1311.57 210.04Z"
        stroke="white" stroke-width="10" mask="url(#path-1-outside-1)" />
    <path
        d="M1352.21 243.88C1352.21 237.16 1353.57 231.28 1356.29 226.24C1359.01 221.12 1362.73 217.16 1367.45 214.36C1372.25 211.56 1377.61 210.16 1383.53 210.16C1388.65 210.16 1393.41 211.36 1397.81 213.76C1402.21 216.08 1405.57 219.16 1407.89 223V188.2H1418.93V277H1407.89V264.64C1405.73 268.56 1402.53 271.8 1398.29 274.36C1394.05 276.84 1389.09 278.08 1383.41 278.08C1377.57 278.08 1372.25 276.64 1367.45 273.76C1362.73 270.88 1359.01 266.84 1356.29 261.64C1353.57 256.44 1352.21 250.52 1352.21 243.88ZM1407.89 244C1407.89 239.04 1406.89 234.72 1404.89 231.04C1402.89 227.36 1400.17 224.56 1396.73 222.64C1393.37 220.64 1389.65 219.64 1385.57 219.64C1381.49 219.64 1377.77 220.6 1374.41 222.52C1371.05 224.44 1368.37 227.24 1366.37 230.92C1364.37 234.6 1363.37 238.92 1363.37 243.88C1363.37 248.92 1364.37 253.32 1366.37 257.08C1368.37 260.76 1371.05 263.6 1374.41 265.6C1377.77 267.52 1381.49 268.48 1385.57 268.48C1389.65 268.48 1393.37 267.52 1396.73 265.6C1400.17 263.6 1402.89 260.76 1404.89 257.08C1406.89 253.32 1407.89 248.96 1407.89 244Z"
        stroke="white" stroke-width="10" mask="url(#path-1-outside-1)" />
</svg>
