<?xml version="1.0" encoding="utf-8"?>
<!-- Generator: Adobe Illustrator 24.0.2, SVG Export Plug-In . SVG Version: 6.00 Build 0)  -->
<svg version="1.1" class="acercaDeMi__contenedorWebDev__webDev" xmlns="http://www.w3.org/2000/svg" xmlns:xlink="http://www.w3.org/1999/xlink" x="0px" y="0px"
	 viewBox="450 450 500 324" style="enable-background:new 450 450 500 324;" xml:space="preserve">
<style type="text/css">
	.st0{opacity:0.48;fill:hsl(194, 85%, 62%);enable-background:new;}
	.st1{opacity:0.18;fill:hsl(194, 85%, 62%);enable-background:new;}
	.st2{fill:hsl(194, 85%, 62%);}
	.st3{fill:url(#SVGID_1_);}
	.st4{fill:url(#SVGID_2_);}
	.st5{fill:hsl(11, 100%, 91%);}
	.st6{fill:#000;}
	.st7{fill:url(#SVGID_3_);}
	.st8{fill:hsl(0, 0%, 100%);}
	.st9{fill:none;stroke:hsl(0, 0%, 100%);stroke-width:3.3;stroke-miterlimit:10;}
	.st10{fill:url(#SVGID_4_);}
	.st11{fill:url(#SVGID_5_);}
	.st12{fill:url(#SVGID_6_);}
	.st13{fill:url(#SVGID_7_);}
	.st14{opacity:0.51;fill:hsl(0, 0%, 100%);enable-background:new    ;}
	.st15{fill:hsl(306, 100%, 36%);}
	.st16{fill:url(#SVGID_8_);}
	.st17{fill:url(#SVGID_9_);}
	.st18{font-family:'MyriadPro-Regular';}
	.st19{font-size:21.9431px;}
	
	.cofeeSmoke{animation: smokeMovement 7s linear infinite; opacity: 0.45;}
	.devHand{animation: handMove 2s linear infinite;}
	.devLeftHand{animation: handMove 2s linear infinite;animation-delay: 1s;}
	.lineWidth1{animation: widthFill1 70s linear infinite;}
	.lineWidth2{animation: widthFill2 70s linear infinite;}
	.lineWidth3{animation: widthFill3 70s linear infinite;}
	.lineWidth4{animation: widthFill4 70s linear infinite;}
	.lineWidth5{animation: widthFill5 70s linear infinite;}
	.lineWidth6{animation: widthFill6 70s linear infinite;}
	.lineWidth7{animation: widthFill7 70s linear infinite;}
	.lineWidth8{animation: widthFill8 70s linear infinite;}
	.lineWidth9{animation: widthFill9 70s linear infinite;}
	.lineWidth10{animation: widthFill10 70s linear infinite;}
	.lineWidth11{animation: widthFill11 70s linear infinite;}
	.lineWidth12{animation: widthFill12 70s linear infinite;}
	.lineWidth13{animation: widthFill13 70s linear infinite;}
	.lineWidth14{animation: widthFill14 70s linear infinite;}
	.lineWidth15{animation: widthFill15 70s linear infinite;}
	.lineWidth16{animation: widthFill16 70s linear infinite;}
	.lineWidth17{animation: widthFill17 70s linear infinite;}
	.lineWidth18{animation: widthFill18 70s linear infinite;}

	@keyframes handMove {
		50% {
			transform: translate(-2.5px, -2.5px);
		}
	}

	@keyframes smokeMovement {
		50% {
			opacity: 0;
			transform: translateY(-10px);
		}
		51% {
			transform: translateY(10px);
		}
	}

	@keyframes widthFill1 {
		0% {
			width: 0;
		}
		3% {
			width: 66.7px;
		}
		100% {
			width: 66.7px;
		}
	}

	@keyframes widthFill2 {
		0% {
			width: 0;
		}
		3% {
			width: 0;
		}
		6% {
			width: 66.7px;
		}
		100% {
			width: 66.7px;
		}
	}

	@keyframes widthFill3 {
		0% {
			width: 0;
		}
		6% {
			width: 0;
		}
		12% {
			width: 101.4px;
		}
		100% {
			width: 101.4px;
		}
	}

	@keyframes widthFill4 {
		0% {
			width: 0;
		}
		12% {
			width: 0;
		}
		15% {
			width: 66.7px;
		}
		100% {
			width: 66.7px;
		}
	}

	@keyframes widthFill5 {
		0% {
			width: 0;
		}
		15% {
			width: 0;
		}
		21% {
			width: 101.4px;
		}
		100% {
			width: 101.4px;
		}
	}

	@keyframes widthFill6 {
		0% {
			width: 0;
		}
		21% {
			width: 0;
		}
		24% {
			width: 42.9px;
		}
		100% {
			width: 42.9px;
		}
	}

	@keyframes widthFill7 {
		0% {
			width: 0;
		}
		24% {
			width: 0;
		}
		30% {
			width: 108.5px;
		}
		100% {
			width: 108.5px;
		}
	}

	@keyframes widthFill8 {
		0% {
			width: 0;
		}
		30% {
			width: 0;
		}
		33% {
			width: 66.7px;
		}
		100% {
			width: 66.7px;
		}
	}

	@keyframes widthFill9 {
		0% {
			width: 0;
		}
		33% {
			width: 0;
		}
		39% {
			width: 101.4px;
		}
		100% {
			width: 101.4px;
		}
	}

	@keyframes widthFill10 {
		0% {
			width: 0;
		}
		39% {
			width: 0;
		}
		42% {
			width: 42.9px;
		}
		100% {
			width: 42.9px;
		}
	}

	@keyframes widthFill11 {
		0% {
			width: 0;
		}
		42% {
			width: 0;
		}
		48% {
			width: 108.5px;
		}
		100% {
			width: 108.5px;
		}
	}

	@keyframes widthFill12 {
		0% {
			width: 0;
		}
		48% {
			width: 0;
		}
		49.5% {
			width: 21.5px;
		}
		100% {
			width: 21.5px;
		}
	}

	@keyframes widthFill13 {
		0% {
			width: 0;
		}
		49.5% {
			width: 0;
		}
		57% {
			width: 146.6px;
		}
		100% {
			width: 146.6px;
		}
	}

	@keyframes widthFill14 {
		0% {
			width: 0;
		}
		57% {
			width: 0;
		}
		60% {
			width: 66.7px;
		}
		100% {
			width: 66.7px;
		}
	}

	@keyframes widthFill15 {
		0% {
			width: 0;
		}
		60% {
			width: 0;
		}
		66% {
			width: 96.8px;
		}
		100% {
			width: 96.8px;
		}
	}

	@keyframes widthFill16 {
		0% {
			width: 0;
		}
		66% {
			width: 0;
		}
		72% {
			width: 98.5px;
		}
		100% {
			width: 98.5px;
		}
	}

	@keyframes widthFill17 {
		0% {
			width: 0;
		}
		72% {
			width: 0;
		}
		78% {
			width: 66px;
		}
		100% {
			width: 66px;
		}
	}

	@keyframes widthFill18 {
		0% {
			width: 0;
		}
		78% {
			width: 0;
		}
		100% {
			width: 138.6px;
		}
	}
</style>
<title>Web Developer</title>
<path class="st0" d="M524.9,467.6h352.5c4.9,0,9,4,9,9v219.4c0,4.9-4,9-9,9H524.9c-4.9,0-9-4-9-9V476.5
	C515.9,471.6,519.9,467.6,524.9,467.6z"/>
<path class="st1" d="M879,722.2c-0.3,7.8-2,15.7-6.4,22.1c-5.5,8.1-14.4,13.1-23,17.8l-24.4,13.5c-10.7,5.9-22,11.9-34.2,12.1
	c-8.6,0.1-17-2.7-25.3-5.1c-38.8-11.2-79.7-12.8-119.8-9.9c-20.6,1.5-41,4-61.4,7.1c-16.3,2.4-35.8,10.5-50.5,0.9
	c-16-10.4-25.8-27.2-34.9-43.6c-7.9-14.2-15.9-28.7-18.4-44.7c-4-24.7,5.6-50.1,20.6-70.3c4.5-6,9.4-11.7,14.7-17v90.8c0,5,4,9,9,9
	h352.5C878.6,710.6,879.2,716.4,879,722.2z"/>
<path class="st1" d="M747.3,467.6H653c3.5-2.7,7.4-5,11.5-6.8c7.5-3.3,15.6-4.7,23.7-5.3C708.6,454.1,729,458.6,747.3,467.6z"/>
<path class="st2 devLeftHand" d="M661,675c0.9,1.2,2,2.3,3.3,3.2c1.9,1,3.9,1.6,6,1.8l31.9,4.8c0.3,0,0.6,0.1,0.9,0.3c0.4,0.4,0.5,0.9,0.5,1.4
	c0.1,6-0.7,11.9-2.4,17.7c-0.1,0.5-0.3,0.9-0.6,1.2c-0.4,0.3-0.9,0.4-1.5,0.4c-10.7,0.9-21.5,0.6-32.3,0.3c-1.8,0-3.6-0.2-5.4-0.6
	c-3-0.8-5.5-2.9-7.7-5c-4.8-4.5-24.5-22.6-25.7-25.1c-1.6-3.5-2.8-7.2-3.8-10.9c-1-3.6,6.3-4,6.2-7.8c-0.1-2.6,0.2-5.2,0.9-7.7
	c0.5-2.2,1.6-4.3,3.2-5.9c1.1-1-0.6-7.8,0.9-7.9c1.8,6,9.7,18,13.2,23.1C652.5,664.2,656.6,669.7,661,675z"/>
<linearGradient class="devLeftHand" id="SVGID_1_" gradientUnits="userSpaceOnUse" x1="837.7477" y1="181.8745" x2="887.9977" y2="162.7245" gradientTransform="matrix(1 0 0 -1 -208.5 845.015)">
	<stop  offset="1.000000e-02" style="stop-color:#000"/>
	<stop  offset="0.12" style="stop-color:#000;stop-opacity:0.75"/>
	<stop  offset="1" style="stop-color:#000;stop-opacity:0"/>
</linearGradient>
<path class="st3" d="M661,675c0.9,1.2,2,2.3,3.3,3.2c1.9,1,3.9,1.6,6,1.8l31.9,4.8c0.3,0,0.6,0.1,0.9,0.3c0.4,0.4,0.5,0.9,0.5,1.4
	c0.1,6-0.7,11.9-2.4,17.7c-0.1,0.5-0.3,0.9-0.6,1.2c-0.4,0.3-0.9,0.4-1.5,0.4c-10.7,0.9-21.5,0.6-32.3,0.3c-1.8,0-3.6-0.2-5.4-0.6
	c-3-0.8-5.5-2.9-7.7-5c-4.8-4.5-24.5-22.6-25.7-25.1c-1.6-3.5-2.8-7.2-3.8-10.9c-1-3.6,6.3-4,6.2-7.8c-0.1-2.6,0.2-5.2,0.9-7.7
	c0.5-2.2,1.6-4.3,3.2-5.9c1.1-1-0.6-7.8,0.9-7.9c1.8,6,9.7,18,13.2,23.1C652.5,664.2,656.6,669.7,661,675z"/>
<path class="st2" d="M580.3,624.3c-2.1,1.9-4.2,4-6,6.2c-4.4,5.4-7.4,11.9-10.1,18.3c-7.3,17.1-13.6,35.5-11.8,54
	c0,1.1,0.3,2.2,0.9,3.2c0.9,1.1,2.1,1.9,3.4,2.2c3.5,1.1,7.3,1.2,11,1.2c14.4,0.1,28.8,0.3,43.2-0.4c2.2-0.1,4.6-0.3,6.4-1.5
	c1.4-1,2.4-2.4,3.1-3.9c3.9-7.3,5-15.7,8-23.4c4-10,15-19.1,12.7-29.6C631.3,605.8,584.8,620.2,580.3,624.3z"/>
<linearGradient id="SVGID_2_" gradientUnits="userSpaceOnUse" x1="812.2476" y1="126.4597" x2="796.9976" y2="218.4297" gradientTransform="matrix(1 0 0 -1 -208.5 845.015)">
	<stop  offset="1.000000e-02" style="stop-color:#000"/>
	<stop  offset="0.12" style="stop-color:#000;stop-opacity:0.75"/>
	<stop  offset="1" style="stop-color:#000;stop-opacity:0"/>
</linearGradient>
<path class="st4" d="M580.3,624.3c-2.1,1.9-4.2,4-6,6.2c-4.4,5.4-7.4,11.9-10.1,18.3c-7.3,17.1-13.6,35.5-11.8,54
	c0,1.1,0.3,2.2,0.9,3.2c0.9,1.1,2.1,1.9,3.4,2.2c3.5,1.1,7.3,1.2,11,1.2c14.4,0.1,28.8,0.3,43.2-0.4c2.2-0.1,4.6-0.3,6.4-1.5
	c1.4-1,2.4-2.4,3.1-3.9c3.9-7.3,5-15.7,8-23.4c4-10,15-19.1,12.7-29.6C631.3,605.8,584.8,620.2,580.3,624.3z"/>
<path class="st5" d="M645.4,587.2c-1.7,8.2-3.5,16.6-8,23.7c-1.7,2.9-4,5.2-6.9,6.8c-2.9,1.5-6.6,1.7-9.4-0.1
	c-1.4-0.9-2.9-2.3-4.4-1.6c-1.1,0.5-1.4,1.8-1.6,3c-0.4,2.9-0.3,5.8,0.1,8.6c0.2,0.8,0.2,1.6,0.1,2.5c-0.4,1.6-1.7,2.7-3.3,3
	c-1.5,0.2-3.1,0-4.5-0.7c-4.4-2-7.6-6-8.4-10.8c-0.2-1.6-0.3-3.2-0.3-4.8c-0.2-7.1-1.3-14.2-1.1-21.3s2-14.5,6.8-19.8
	c2.8-2.9,6.1-5.2,9.8-6.8c5.4-2.6,11.5-4.4,17.5-3.5c4.8,0.8,9,3.6,11.6,7.7C646.6,578,646.6,581.6,645.4,587.2z"/>
<path class="st6" d="M660.3,569.2c0.8-6.8-2.7-13.5-8.8-16.7c-2.6-1.3-5.6-1.9-8.5-2.6c-6.7-1.8-13.1-4.8-20-5.4s-14.8,1.8-17.8,8
	c-0.6,1.1-1.1,2.5-2.3,2.8c-0.7,0.1-1.4,0-2-0.2c-4.6-0.8-8.7,3.1-10.8,7.3c-3.3,6.8-3.5,14.6-2.8,22.1c0.7,6.9,2.4,14.4,8,18.6
	c0.5,0.4,1.4,0.8,1.9,0.4c0.2-0.3,0.4-0.6,0.4-0.9c0.6-2.6,0.8-5.3,0.6-8c-0.1-2-0.4-4.1,0.1-6.1c0.5-2,2.2-3.8,4.2-3.8
	c1.9,0,3.4,1.8,3.9,3.6c0.3,1.9,0.3,3.8-0.2,5.6c0.3,0.8,1.4-0.1,1.5-0.9c1.4-6.3,1.7-13.3,6-18c0.9,0.9,1.5,2,1.9,3.3
	c1.3-1.4,3.3-1.9,5.2-1.3c1.3,0.6,2.4,1.3,3.4,2.3C634.9,587.5,658.1,585,660.3,569.2z"/>
<path class="st2 devHand" d="M583.3,634.6c-3.4,2.4-5,6.7-5.1,10.9c-0.1,4.1,4.3,30.4,8.4,37.9c3.2,5.8,9.9,20.9,20,25.1
	c3,1.2,47.4,0.7,67.9-1.5c-0.1-4.9-0.4-9.7-0.7-14.6c0-0.6-0.2-1.3-0.6-1.8c-0.5-0.5-1.3-4.1-2-4.1c-12,0-24.1,3.7-36.1,4
	c-1.7,0.1-3.5,0-5.2-0.3c-1.4-0.4-2.8-0.9-4-1.6c-9.3-5.2-14.4-15.5-18-25.5c-2.8-7.7-5-15.7-9-22.9c-1.4-2.6-2.7-5.1-5.5-6.2
	C590.2,632.5,586.4,632.3,583.3,634.6z"/>
<linearGradient id="SVGID_3_" gradientUnits="userSpaceOnUse" x1="817.6584" y1="131.5835" x2="842.7784" y2="188.1135" gradientTransform="matrix(1 0 0 -1 -208.5 845.015)">
	<stop  offset="1.000000e-02" style="stop-color:#000"/>
	<stop  offset="0.12" style="stop-color:#000;stop-opacity:0.75"/>
	<stop  offset="1" style="stop-color:#000;stop-opacity:0"/>
</linearGradient>
<path class="st7 devHand" d="M583.3,634.6c-3.4,2.4-5,6.7-5.1,10.9c-0.1,4.1,4.3,30.4,8.4,37.9c3.2,5.8,9.9,20.9,20,25.1
	c3,1.2,47.4,0.7,67.9-1.5c-0.1-4.9-0.4-9.7-0.7-14.6c0-0.6-0.2-1.3-0.6-1.8c-0.5-0.5-1.3-4.1-2-4.1c-12,0-24.1,3.7-36.1,4
	c-1.7,0.1-3.5,0-5.2-0.3c-1.4-0.4-2.8-0.9-4-1.6c-9.3-5.2-14.4-15.5-18-25.5c-2.8-7.7-5-15.7-9-22.9c-1.4-2.6-2.7-5.1-5.5-6.2
	C590.2,632.5,586.4,632.3,583.3,634.6z"/>
<path class="st5 devHand" d="M672.8,685.5c6.2-0.6,13.1,0.8,17.1,5.7c0.4,0.4,0.7,1,0.8,1.6c0,0.5-0.2,1.1-0.5,1.5
	c-2.3,3.9-7.4,4.8-11.6,6.3c-2.2,0.8-4.3,1.8-6.3,3.1c-1.1,0.9-2.4,1.5-3.8,1.9c-3,0.5-5.5-2.2-6.9-4.9c-1.6-3-4-9.2-1-12
	C663.1,686.4,669.7,685.8,672.8,685.5z"/>
<path class="st5 devLeftHand" d="M724.4,684c1.1,0.6,2.1,1.5,2.8,2.5c0.7,1.1,0.8,2.5,0.3,3.6c-0.5,0.7-1.1,1.3-1.9,1.7
	c-5.5,3.3-12.3,3.9-17.9,7c-1.1,0.8-2.5,1.4-3.9,1.7c-1.7,0-3.2-0.7-4.3-2c-1-1.3-1.8-2.7-2.3-4.3C690.7,677,715,678,724.4,684z"/>
<path class="st8" d="M565.9,676.3h25.9l0,0v21.3c0,4.1-3.4,7.5-7.5,7.5h-10.9c-4.1,0-7.5-3.4-7.5-7.5V676.3L565.9,676.3z"/>
<path class="st9" d="M590.1,681.4h7.8c3.5,0,6.3,2.8,6.3,6.3v2.6c0,3.5-2.8,6.3-6.3,6.3l0,0h-7.8l0,0V681.4L590.1,681.4z"/>
<path class="st2" d="M530.4,704.6h351c3.1,0,5.6,2.5,5.6,5.6l0,0c0,3.1-2.5,5.6-5.6,5.6h-351c-3.1,0-5.6-2.5-5.6-5.6l0,0
	C524.8,707.1,527.3,704.6,530.4,704.6z"/>
<rect x="618.5" y="715.9" class="st2" width="198.4" height="68.8"/>
<rect x="541.9" y="715.9" class="st2" width="77.9" height="68.8"/>
<linearGradient id="SVGID_4_" gradientUnits="userSpaceOnUse" x1="946.2942" y1="189.4167" x2="903.2342" y2="44.7367" gradientTransform="matrix(1 0 0 -1 -203.61 857.795)">
	<stop  offset="1.000000e-02" style="stop-color:#000"/>
	<stop  offset="0.12" style="stop-color:#000;stop-opacity:0.75"/>
	<stop  offset="1" style="stop-color:#000;stop-opacity:0"/>
</linearGradient>
<rect x="619.8" y="715.9" class="st10" width="197.1" height="68.8"/>
<linearGradient id="SVGID_5_" gradientUnits="userSpaceOnUse" x1="768.623" y1="182.5573" x2="810.3431" y2="-15.2927" gradientTransform="matrix(1 0 0 -1 -203.61 857.795)">
	<stop  offset="1.000000e-02" style="stop-color:#000"/>
	<stop  offset="0.12" style="stop-color:#000;stop-opacity:0.75"/>
	<stop  offset="1" style="stop-color:#000;stop-opacity:0"/>
</linearGradient>
<rect x="541.9" y="715.9" class="st11" width="77.9" height="68.8"/>
<path class="st1" d="M886.3,476.5v43.8H515.9v-43.8c0-5,4-9,9-9h352.5C882.3,467.6,886.3,471.6,886.3,476.5z"/>
<path class="st2" d="M804.2,704.4H675.8c-3.6,0-6.5-2.9-6.5-6.5l0,0c0-3.6,2.9-6.5,6.5-6.5h128.4c3.6,0,6.5,2.9,6.5,6.5l0,0
	C810.7,701.5,807.8,704.4,804.2,704.4z"/>
<linearGradient id="SVGID_6_" gradientUnits="userSpaceOnUse" x1="948.2282" y1="134.4573" x2="948.8182" y2="161.6773" gradientTransform="matrix(1 0 0 -1 -208.5 845.005)">
	<stop  offset="1.000000e-02" style="stop-color:#000"/>
	<stop  offset="0.12" style="stop-color:#000;stop-opacity:0.75"/>
	<stop  offset="1" style="stop-color:#000;stop-opacity:0"/>
</linearGradient>
<path class="st12" d="M804.2,704.4H675.8c-3.6,0-6.5-2.9-6.5-6.5l0,0c0-3.6,2.9-6.5,6.5-6.5h128.4c3.6,0,6.5,2.9,6.5,6.5l0,0
	C810.7,701.5,807.8,704.4,804.2,704.4z"/>
<path class="st2" d="M720.3,704.4h98.6l26-65.9c1.2-3-0.3-6.3-3.3-7.5c-0.7-0.3-1.4-0.4-2.1-0.4h-77.3c-7.7,0-14.5,4.7-17.3,11.8
	L720.3,704.4z"/>
<path class="st2" d="M725.3,704.5H819l24.7-62.6c1.1-2.8-0.3-6-3.1-7.1c-0.6-0.3-1.3-0.4-2-0.4h-73.5c-7.3,0-13.8,4.4-16.5,11.2
	L725.3,704.5z"/>
<linearGradient id="SVGID_7_" gradientUnits="userSpaceOnUse" x1="991.0027" y1="117.6472" x2="995.0427" y2="219.9372" gradientTransform="matrix(1 0 0 -1 -208.5 845.015)">
	<stop  offset="1.000000e-02" style="stop-color:#000"/>
	<stop  offset="0.12" style="stop-color:#000;stop-opacity:0.75"/>
	<stop  offset="1" style="stop-color:#000;stop-opacity:0"/>
</linearGradient>
<path class="st13" d="M725.3,704.5H819l24.7-62.6c1.1-2.8-0.3-6-3.1-7.1c-0.6-0.3-1.3-0.4-2-0.4h-73.5c-7.3,0-13.8,4.4-16.5,11.2
	L725.3,704.5z"/>
<rect x="692.7" y="609.9" class="st14 lineWidth18" width="138.6" height="7.8"/>
<rect x="692.7" y="596.5" class="st8 lineWidth16" width="98.5" height="7.8"/>
<rect x="804.7" y="596.5" class="st8 lineWidth17" width="66" height="7.8"/>
<rect x="769" y="547.2" class="st8 lineWidth9" width="101.4" height="6.9"/>
<rect x="747.8" y="559.5" class="st14 lineWidth11" width="108.5" height="6.9"/>
<rect x="694.6" y="547.2" class="st8 lineWidth8" width="66.7" height="6.9"/>
<rect x="723.9" y="571.4" class="st8 lineWidth13" width="146.6" height="6.9"/>
<rect x="694.6" y="571.4" class="st14 lineWidth12" width="21.5" height="6.9"/>
<rect x="773.7" y="583.7" class="st14 lineWidth15" width="96.8" height="6.9"/>
<rect x="694.6" y="583.7" class="st8 lineWidth14" width="66.7" height="6.9"/>
<rect x="694.6" y="559.2" class="st8 lineWidth10" width="42.9" height="6.9"/>
<rect x="732" y="523.8" class="st8 lineWidth5" width="101.4" height="6.9"/>
<rect x="710.7" y="536.1" class="st14 lineWidth7" width="108.5" height="6.9"/>
<rect x="657.5" y="523.8" class="st8 lineWidth4" width="66.7" height="6.9"/>
<rect x="731.1" y="509.5" class="st8 lineWidth3" width="101.4" height="6.9"/>
<rect x="656.6" y="496.5" class="st8 lineWidth2" width="66.7" height="6.9"/>
<rect x="656.6" y="484.6" class="st8 lineWidth1" width="66.7" height="6.9"/>
<rect x="657.5" y="535.8" class="st8 lineWidth6" width="42.9" height="6.9"/>
<path class="st8" d="M264,533c-6.4,0-6.4,10,0,10C270.4,543,270.4,533,264,533z"/>
<path class="st15" d="M-478,369"/>

<linearGradient id="SVGID_8_" gradientUnits="userSpaceOnUse" x1="580.8376" y1="669.8637" x2="580.8376" y2="648.5582">
	<stop  offset="0" style="stop-color:#FFF"/>
	<stop  offset="1" style="stop-color:hsl(0, 0%, 56%)"/>
</linearGradient>
<path class="st16 cofeeSmoke" d="M581.2,668.5c3.3-1.6,7.1-3.9,6.1-6.4c-1-2.4-5.9-3.1-7.8-5.6c-1.2-1.6-1.4-4.1,3.9-7.9
	c-1.2,0.4-2.4,0.8-3.7,1.3c-3.3,1.8-6.3,4.1-5.4,6.6c0.9,2.5,5.1,3.3,6.8,6c1,1.7,1,4.1-2.9,7.4
	C579.2,669.4,580.2,668.9,581.2,668.5z"/>
<linearGradient id="SVGID_9_" gradientUnits="userSpaceOnUse" x1="572.5964" y1="669.8637" x2="572.5964" y2="648.5582">
	<stop  offset="0" style="stop-color:#FFF"/>
	<stop  offset="1" style="stop-color:hsl(0, 0%, 56%)"/>
</linearGradient>
<path class="st17 cofeeSmoke" d="M573,668.5c3.3-1.6,7.1-3.9,6.1-6.4c-1-2.4-5.9-3.1-7.8-5.6c-1.2-1.6-1.4-4.1,3.9-7.9
	c-1.2,0.4-2.4,0.8-3.7,1.3c-3.3,1.8-6.3,4.1-5.4,6.6c0.9,2.5,5.1,3.3,6.8,6c1,1.7,1,4.1-2.9,7.4C571,669.4,572,668.9,573,668.5z"/>
</svg>


